<?xml version="1.0" standalone="no"?><!DOCTYPE svg PUBLIC "-//W3C//DTD SVG 1.1//EN" "http://www.w3.org/Graphics/SVG/1.1/DTD/svg11.dtd"><svg class="logo" x="0px" y="0px" viewBox="0 0 409.6 86" enable-background="new 0 0 409.6 86" version="1.1" xmlns="http://www.w3.org/2000/svg" xmlns:xlink="http://www.w3.org/1999/xlink" style="border-bottom-color:rgb(44, 89, 153);border-left-color:rgb(44, 89, 153);border-right-color:rgb(44, 89, 153);border-top-color:rgb(44, 89, 153);color:rgb(44, 89, 153);height:48px;margin-top:6px;outline-color:rgb(44, 89, 153);width:228.609px;column-rule-color:rgb(44, 89, 153);perspective-origin:114.297px 24px;-webkit-text-emphasis-color:rgb(44, 89, 153);-webkit-text-fill-color:rgb(44, 89, 153);-webkit-text-stroke-color:rgb(44, 89, 153);transform-origin:114.297px 24px;">
		        		<g style="border-bottom-color:rgb(44, 89, 153);border-left-color:rgb(44, 89, 153);border-right-color:rgb(44, 89, 153);border-top-color:rgb(44, 89, 153);color:rgb(44, 89, 153);height:auto;outline-color:rgb(44, 89, 153);overflow-x:visible;overflow-y:visible;width:auto;column-rule-color:rgb(44, 89, 153);perspective-origin:0px 0px;-webkit-text-emphasis-color:rgb(44, 89, 153);-webkit-text-fill-color:rgb(44, 89, 153);-webkit-text-stroke-color:rgb(44, 89, 153);transform-origin:0px 0px;">
		        			<path fill="#3A484E" d="M89.7,23.4l19.1,38.9h-8.7l-2.8-5.9H82l-2.8,5.9h-8.6L89.7,23.4z M94.3,49.5l-4.7-9.7L85,49.5H94.3z" style="border-bottom-color:rgb(44, 89, 153);border-left-color:rgb(44, 89, 153);border-right-color:rgb(44, 89, 153);border-top-color:rgb(44, 89, 153);color:rgb(44, 89, 153);height:auto;outline-color:rgb(44, 89, 153);overflow-x:visible;overflow-y:visible;width:auto;column-rule-color:rgb(44, 89, 153);perspective-origin:0px 0px;-webkit-text-emphasis-color:rgb(44, 89, 153);-webkit-text-fill-color:rgb(44, 89, 153);-webkit-text-stroke-color:rgb(44, 89, 153);transform-origin:0px 0px;fill:rgb(58, 72, 78);d:path('M 89.7 23.4 l 19.1 38.9 h -8.7 l -2.8 -5.9 H 82 l -2.8 5.9 h -8.6 L 89.7 23.4 Z M 94.3 49.5 l -4.7 -9.7 L 85 49.5 H 94.3 Z');"/>
		        			<path fill="#3A484E" d="M112,35.6h7.9V39c1.1-2.3,4.1-3.9,7.8-3.9c6.5,0,10.2,4.2,10.2,11v16.1H130V47c0-3.1-1.7-5-4.9-5&#10;&#9;&#9;        &#9;&#9;&#9;c-3,0-5.2,2.2-5.2,5.3v14.9H112V35.6z" style="border-bottom-color:rgb(44, 89, 153);border-left-color:rgb(44, 89, 153);border-right-color:rgb(44, 89, 153);border-top-color:rgb(44, 89, 153);color:rgb(44, 89, 153);height:auto;outline-color:rgb(44, 89, 153);overflow-x:visible;overflow-y:visible;width:auto;column-rule-color:rgb(44, 89, 153);perspective-origin:0px 0px;-webkit-text-emphasis-color:rgb(44, 89, 153);-webkit-text-fill-color:rgb(44, 89, 153);-webkit-text-stroke-color:rgb(44, 89, 153);transform-origin:0px 0px;fill:rgb(58, 72, 78);d:path('M 112 35.6 h 7.9 V 39 c 1.1 -2.3 4.1 -3.9 7.8 -3.9 c 6.5 0 10.2 4.2 10.2 11 v 16.1 H 130 V 47 c 0 -3.1 -1.7 -5 -4.9 -5 c -3 0 -5.2 2.2 -5.2 5.3 v 14.9 H 112 V 35.6 Z');"/>
		        			<path fill="#3A484E" d="M153.1,45.7c3.6-0.3,5.4-0.7,5.4-2.4c0-1.3-1-2.2-3.6-2.2c-3,0-5.3,1.3-7.1,3.3l-4.6-4&#10;&#9;&#9;        &#9;&#9;&#9;c2.7-3.7,6.8-5.6,11.6-5.6c7.1,0,11.4,3.3,11.4,9c0,0,0,9.9,0,10c0,2,0.9,2.1,2,2.1c0.1,0,0.1,0,0.2,0v6.2c-0.9,0.5-2,0.6-3.2,0.6&#10;&#9;&#9;        &#9;&#9;&#9;c-2.2,0-3.1-0.6-3.7-1.2c-0.6-0.5-0.9-1.1-1.2-1.7c-1.9,2.3-5.3,3.2-9,3.2c-5.9,0-9.9-3.2-9.9-8.1&#10;&#9;&#9;        &#9;&#9;&#9;C141.3,49.4,144.9,46.5,153.1,45.7z M152.5,56.4c3.6,0,6-1.5,6-4.7v-2c-0.8,0.7-2.6,0.8-5.2,1.2c-2.4,0.4-4.3,1-4.3,3&#10;&#9;&#9;        &#9;&#9;&#9;C149,55.5,150.2,56.4,152.5,56.4z" style="border-bottom-color:rgb(44, 89, 153);border-left-color:rgb(44, 89, 153);border-right-color:rgb(44, 89, 153);border-top-color:rgb(44, 89, 153);color:rgb(44, 89, 153);height:auto;outline-color:rgb(44, 89, 153);overflow-x:visible;overflow-y:visible;width:auto;column-rule-color:rgb(44, 89, 153);perspective-origin:0px 0px;-webkit-text-emphasis-color:rgb(44, 89, 153);-webkit-text-fill-color:rgb(44, 89, 153);-webkit-text-stroke-color:rgb(44, 89, 153);transform-origin:0px 0px;fill:rgb(58, 72, 78);d:path('M 153.1 45.7 c 3.6 -0.3 5.4 -0.7 5.4 -2.4 c 0 -1.3 -1 -2.2 -3.6 -2.2 c -3 0 -5.3 1.3 -7.1 3.3 l -4.6 -4 c 2.7 -3.7 6.8 -5.6 11.6 -5.6 c 7.1 0 11.4 3.3 11.4 9 c 0 0 0 9.9 0 10 c 0 2 0.9 2.1 2 2.1 c 0.1 0 0.1 0 0.2 0 v 6.2 c -0.9 0.5 -2 0.6 -3.2 0.6 c -2.2 0 -3.1 -0.6 -3.7 -1.2 c -0.6 -0.5 -0.9 -1.1 -1.2 -1.7 c -1.9 2.3 -5.3 3.2 -9 3.2 c -5.9 0 -9.9 -3.2 -9.9 -8.1 C 141.3 49.4 144.9 46.5 153.1 45.7 Z M 152.5 56.4 c 3.6 0 6 -1.5 6 -4.7 v -2 c -0.8 0.7 -2.6 0.8 -5.2 1.2 c -2.4 0.4 -4.3 1 -4.3 3 C 149 55.5 150.2 56.4 152.5 56.4 Z');"/>
		        			<path fill="#3A484E" d="M171.7,25.5h7.9v26.9c0,2.4,0.9,3.4,3.1,3.4c0.6,0,1.3-0.1,1.9-0.2v7c-0.8,0.2-2.3,0.4-3.7,0.4&#10;&#9;&#9;        &#9;&#9;&#9;c-3.7,0-9.1-1.2-9.1-9.3V25.5z" style="border-bottom-color:rgb(44, 89, 153);border-left-color:rgb(44, 89, 153);border-right-color:rgb(44, 89, 153);border-top-color:rgb(44, 89, 153);color:rgb(44, 89, 153);height:auto;outline-color:rgb(44, 89, 153);overflow-x:visible;overflow-y:visible;width:auto;column-rule-color:rgb(44, 89, 153);perspective-origin:0px 0px;-webkit-text-emphasis-color:rgb(44, 89, 153);-webkit-text-fill-color:rgb(44, 89, 153);-webkit-text-stroke-color:rgb(44, 89, 153);transform-origin:0px 0px;fill:rgb(58, 72, 78);d:path('M 171.7 25.5 h 7.9 v 26.9 c 0 2.4 0.9 3.4 3.1 3.4 c 0.6 0 1.3 -0.1 1.9 -0.2 v 7 c -0.8 0.2 -2.3 0.4 -3.7 0.4 c -3.7 0 -9.1 -1.2 -9.1 -9.3 V 25.5 Z');"/>
		        			<path fill="#3A484E" d="M191,66.9c1.1,0,1.7-0.2,2.3-0.6c0.5-0.3,0.9-0.9,1.1-1.7l0.4-1.2l-11.3-27.8h8l7.2,18.5l6.5-18.5h8&#10;&#9;&#9;        &#9;&#9;&#9;l-11.8,30.8c-0.8,2-1.7,3.7-3.1,4.9c-1.8,1.6-4.3,2.3-7.1,2.3c-1.3,0-2.5-0.2-3.5-0.4v-6.8C188.7,66.8,190,66.9,191,66.9z" style="border-bottom-color:rgb(44, 89, 153);border-left-color:rgb(44, 89, 153);border-right-color:rgb(44, 89, 153);border-top-color:rgb(44, 89, 153);color:rgb(44, 89, 153);height:auto;outline-color:rgb(44, 89, 153);overflow-x:visible;overflow-y:visible;width:auto;column-rule-color:rgb(44, 89, 153);perspective-origin:0px 0px;-webkit-text-emphasis-color:rgb(44, 89, 153);-webkit-text-fill-color:rgb(44, 89, 153);-webkit-text-stroke-color:rgb(44, 89, 153);transform-origin:0px 0px;fill:rgb(58, 72, 78);d:path('M 191 66.9 c 1.1 0 1.7 -0.2 2.3 -0.6 c 0.5 -0.3 0.9 -0.9 1.1 -1.7 l 0.4 -1.2 l -11.3 -27.8 h 8 l 7.2 18.5 l 6.5 -18.5 h 8 l -11.8 30.8 c -0.8 2 -1.7 3.7 -3.1 4.9 c -1.8 1.6 -4.3 2.3 -7.1 2.3 c -1.3 0 -2.5 -0.2 -3.5 -0.4 v -6.8 C 188.7 66.8 190 66.9 191 66.9 Z');"/>
		        			<path fill="#3A484E" d="M219.2,42.8h-3.5v-7.1h3.5V25.5h7.6v10.2h5.9v7.1h-5.9v9.5c0,2.6,1.1,3.5,3.4,3.5c0.6,0,1.3-0.1,2-0.2v7&#10;&#9;&#9;        &#9;&#9;&#9;c-0.9,0.2-2.4,0.4-3.9,0.4c-3.9,0-9.2-1.2-9.2-9.5V42.8z" style="border-bottom-color:rgb(44, 89, 153);border-left-color:rgb(44, 89, 153);border-right-color:rgb(44, 89, 153);border-top-color:rgb(44, 89, 153);color:rgb(44, 89, 153);height:auto;outline-color:rgb(44, 89, 153);overflow-x:visible;overflow-y:visible;width:auto;column-rule-color:rgb(44, 89, 153);perspective-origin:0px 0px;-webkit-text-emphasis-color:rgb(44, 89, 153);-webkit-text-fill-color:rgb(44, 89, 153);-webkit-text-stroke-color:rgb(44, 89, 153);transform-origin:0px 0px;fill:rgb(58, 72, 78);d:path('M 219.2 42.8 h -3.5 v -7.1 h 3.5 V 25.5 h 7.6 v 10.2 h 5.9 v 7.1 h -5.9 v 9.5 c 0 2.6 1.1 3.5 3.4 3.5 c 0.6 0 1.3 -0.1 2 -0.2 v 7 c -0.9 0.2 -2.4 0.4 -3.9 0.4 c -3.9 0 -9.2 -1.2 -9.2 -9.5 V 42.8 Z');"/>
		        			<path fill="#3A484E" d="M236.1,28.9c0-2.5,2.1-4.5,4.5-4.5c2.5,0,4.5,2,4.5,4.5c0,2.5-2,4.4-4.5,4.4&#10;&#9;&#9;        &#9;&#9;&#9;C238.2,33.4,236.1,31.4,236.1,28.9z M236.7,35.6h7.9v26.6h-7.9V35.6z" style="border-bottom-color:rgb(44, 89, 153);border-left-color:rgb(44, 89, 153);border-right-color:rgb(44, 89, 153);border-top-color:rgb(44, 89, 153);color:rgb(44, 89, 153);height:auto;outline-color:rgb(44, 89, 153);overflow-x:visible;overflow-y:visible;width:auto;column-rule-color:rgb(44, 89, 153);perspective-origin:0px 0px;-webkit-text-emphasis-color:rgb(44, 89, 153);-webkit-text-fill-color:rgb(44, 89, 153);-webkit-text-stroke-color:rgb(44, 89, 153);transform-origin:0px 0px;fill:rgb(58, 72, 78);d:path('M 236.1 28.9 c 0 -2.5 2.1 -4.5 4.5 -4.5 c 2.5 0 4.5 2 4.5 4.5 c 0 2.5 -2 4.4 -4.5 4.4 C 238.2 33.4 236.1 31.4 236.1 28.9 Z M 236.7 35.6 h 7.9 v 26.6 h -7.9 V 35.6 Z');"/>
		        			<path fill="#3A484E" d="M263.1,34.8c4,0,7.7,1.3,11.1,5l-5,4.9c-1.6-1.7-3.4-2.7-6.1-2.7c-3.8,0-6.8,2.9-6.8,7c0,4,3,6.9,6.8,6.9&#10;&#9;&#9;        &#9;&#9;&#9;c2.7,0,4.5-1,6.1-2.7l5,4.9c-3.4,3.7-7.1,5-11.1,5c-8.1,0-14.7-5.9-14.7-14S255,34.8,263.1,34.8z" style="border-bottom-color:rgb(44, 89, 153);border-left-color:rgb(44, 89, 153);border-right-color:rgb(44, 89, 153);border-top-color:rgb(44, 89, 153);color:rgb(44, 89, 153);height:auto;outline-color:rgb(44, 89, 153);overflow-x:visible;overflow-y:visible;width:auto;column-rule-color:rgb(44, 89, 153);perspective-origin:0px 0px;-webkit-text-emphasis-color:rgb(44, 89, 153);-webkit-text-fill-color:rgb(44, 89, 153);-webkit-text-stroke-color:rgb(44, 89, 153);transform-origin:0px 0px;fill:rgb(58, 72, 78);d:path('M 263.1 34.8 c 4 0 7.7 1.3 11.1 5 l -5 4.9 c -1.6 -1.7 -3.4 -2.7 -6.1 -2.7 c -3.8 0 -6.8 2.9 -6.8 7 c 0 4 3 6.9 6.8 6.9 c 2.7 0 4.5 -1 6.1 -2.7 l 5 4.9 c -3.4 3.7 -7.1 5 -11.1 5 c -8.1 0 -14.7 -5.9 -14.7 -14 S 255 34.8 263.1 34.8 Z');"/>
		        			<path fill="#3A484E" d="M280.2,53.4c1.4,1.7,4.2,2.9,7.3,2.9c2.8,0,4-0.9,4-2.2c0-1.8-3.6-2-7.7-3.3c-3.7-1.3-6.1-3.4-6.1-7.4&#10;&#9;&#9;        &#9;&#9;&#9;c0-5.7,5-8.5,10.3-8.5c4.4,0,7.3,1.6,9.1,3.4l-3.7,5.2c-1.1-0.9-2.8-2-5.6-2c-1.8,0-2.6,0.8-2.6,1.7c0,1.8,2.2,1.5,7.3,3.3&#10;&#9;&#9;        &#9;&#9;&#9;c4.8,1.6,6.5,4.2,6.5,7.5c0,5.1-3.6,9-11.7,9c-6,0-9.6-2.3-11.6-4.7L280.2,53.4z" style="border-bottom-color:rgb(44, 89, 153);border-left-color:rgb(44, 89, 153);border-right-color:rgb(44, 89, 153);border-top-color:rgb(44, 89, 153);color:rgb(44, 89, 153);height:auto;outline-color:rgb(44, 89, 153);overflow-x:visible;overflow-y:visible;width:auto;column-rule-color:rgb(44, 89, 153);perspective-origin:0px 0px;-webkit-text-emphasis-color:rgb(44, 89, 153);-webkit-text-fill-color:rgb(44, 89, 153);-webkit-text-stroke-color:rgb(44, 89, 153);transform-origin:0px 0px;fill:rgb(58, 72, 78);d:path('M 280.2 53.4 c 1.4 1.7 4.2 2.9 7.3 2.9 c 2.8 0 4 -0.9 4 -2.2 c 0 -1.8 -3.6 -2 -7.7 -3.3 c -3.7 -1.3 -6.1 -3.4 -6.1 -7.4 c 0 -5.7 5 -8.5 10.3 -8.5 c 4.4 0 7.3 1.6 9.1 3.4 l -3.7 5.2 c -1.1 -0.9 -2.8 -2 -5.6 -2 c -1.8 0 -2.6 0.8 -2.6 1.7 c 0 1.8 2.2 1.5 7.3 3.3 c 4.8 1.6 6.5 4.2 6.5 7.5 c 0 5.1 -3.6 9 -11.7 9 c -6 0 -9.6 -2.3 -11.6 -4.7 L 280.2 53.4 Z');"/>
		        			<path fill="#3A484E" d="M314.4,25.5h24.2v7.4h-16.1v7.5h14.7v7.2h-14.7v14.6h-8.1V25.5z" style="border-bottom-color:rgb(44, 89, 153);border-left-color:rgb(44, 89, 153);border-right-color:rgb(44, 89, 153);border-top-color:rgb(44, 89, 153);color:rgb(44, 89, 153);height:auto;outline-color:rgb(44, 89, 153);overflow-x:visible;overflow-y:visible;width:auto;column-rule-color:rgb(44, 89, 153);perspective-origin:0px 0px;-webkit-text-emphasis-color:rgb(44, 89, 153);-webkit-text-fill-color:rgb(44, 89, 153);-webkit-text-stroke-color:rgb(44, 89, 153);transform-origin:0px 0px;fill:rgb(58, 72, 78);d:path('M 314.4 25.5 h 24.2 v 7.4 h -16.1 v 7.5 h 14.7 v 7.2 h -14.7 v 14.6 h -8.1 V 25.5 Z');"/>
		        			<path fill="#3A484E" d="M343.3,28.9c0-2.5,2.1-4.5,4.5-4.5c2.5,0,4.5,2,4.5,4.5c0,2.5-2,4.4-4.5,4.4&#10;&#9;&#9;        &#9;&#9;&#9;C345.3,33.4,343.3,31.4,343.3,28.9z M343.9,35.6h7.9v26.6h-7.9V35.6z" style="border-bottom-color:rgb(44, 89, 153);border-left-color:rgb(44, 89, 153);border-right-color:rgb(44, 89, 153);border-top-color:rgb(44, 89, 153);color:rgb(44, 89, 153);height:auto;outline-color:rgb(44, 89, 153);overflow-x:visible;overflow-y:visible;width:auto;column-rule-color:rgb(44, 89, 153);perspective-origin:0px 0px;-webkit-text-emphasis-color:rgb(44, 89, 153);-webkit-text-fill-color:rgb(44, 89, 153);-webkit-text-stroke-color:rgb(44, 89, 153);transform-origin:0px 0px;fill:rgb(58, 72, 78);d:path('M 343.3 28.9 c 0 -2.5 2.1 -4.5 4.5 -4.5 c 2.5 0 4.5 2 4.5 4.5 c 0 2.5 -2 4.4 -4.5 4.4 C 345.3 33.4 343.3 31.4 343.3 28.9 Z M 343.9 35.6 h 7.9 v 26.6 h -7.9 V 35.6 Z');"/>
		        			<path fill="#3A484E" d="M357.5,35.6h7.9v3.6c1.2-2.7,4.1-4.2,7.7-4.2c0.7,0,1.6,0.1,2.1,0.2v7.4c-0.7-0.2-1.6-0.3-2.6-0.3&#10;&#9;&#9;        &#9;&#9;&#9;c-4.5,0-7.1,2.6-7.1,6.9v13h-7.9V35.6z" style="border-bottom-color:rgb(44, 89, 153);border-left-color:rgb(44, 89, 153);border-right-color:rgb(44, 89, 153);border-top-color:rgb(44, 89, 153);color:rgb(44, 89, 153);height:auto;outline-color:rgb(44, 89, 153);overflow-x:visible;overflow-y:visible;width:auto;column-rule-color:rgb(44, 89, 153);perspective-origin:0px 0px;-webkit-text-emphasis-color:rgb(44, 89, 153);-webkit-text-fill-color:rgb(44, 89, 153);-webkit-text-stroke-color:rgb(44, 89, 153);transform-origin:0px 0px;fill:rgb(58, 72, 78);d:path('M 357.5 35.6 h 7.9 v 3.6 c 1.2 -2.7 4.1 -4.2 7.7 -4.2 c 0.7 0 1.6 0.1 2.1 0.2 v 7.4 c -0.7 -0.2 -1.6 -0.3 -2.6 -0.3 c -4.5 0 -7.1 2.6 -7.1 6.9 v 13 h -7.9 V 35.6 Z');"/>
		        			<path fill="#3A484E" d="M377.4,48.9c0-8.5,6.1-13.9,14.4-13.9c8.2,0,13.7,6,13.7,13.5c0,0,0,1.3-0.1,2.5h-20.1&#10;&#9;&#9;        &#9;&#9;&#9;c0.2,3.2,2.9,5.2,7.1,5.2c2.7,0,4.6-0.8,6.5-2.6l4.6,4.4c-3.5,3.6-7.4,4.9-11.4,4.9c-8.7,0-14.6-5.4-14.6-13.8V48.9z M397.5,45.9&#10;&#9;&#9;        &#9;&#9;&#9;c0-2.4-2.6-4.4-5.7-4.4c-3.4,0-6.2,2-6.4,4.4H397.5z" style="border-bottom-color:rgb(44, 89, 153);border-left-color:rgb(44, 89, 153);border-right-color:rgb(44, 89, 153);border-top-color:rgb(44, 89, 153);color:rgb(44, 89, 153);height:auto;outline-color:rgb(44, 89, 153);overflow-x:visible;overflow-y:visible;width:auto;column-rule-color:rgb(44, 89, 153);perspective-origin:0px 0px;-webkit-text-emphasis-color:rgb(44, 89, 153);-webkit-text-fill-color:rgb(44, 89, 153);-webkit-text-stroke-color:rgb(44, 89, 153);transform-origin:0px 0px;fill:rgb(58, 72, 78);d:path('M 377.4 48.9 c 0 -8.5 6.1 -13.9 14.4 -13.9 c 8.2 0 13.7 6 13.7 13.5 c 0 0 0 1.3 -0.1 2.5 h -20.1 c 0.2 3.2 2.9 5.2 7.1 5.2 c 2.7 0 4.6 -0.8 6.5 -2.6 l 4.6 4.4 c -3.5 3.6 -7.4 4.9 -11.4 4.9 c -8.7 0 -14.6 -5.4 -14.6 -13.8 V 48.9 Z M 397.5 45.9 c 0 -2.4 -2.6 -4.4 -5.7 -4.4 c -3.4 0 -6.2 2 -6.4 4.4 H 397.5 Z');"/>
		        		</g>
		        		<path fill="none" d="M30.9,3.3c0,0-26.8,40.9-26.8,55.3C4.1,70.1,12,79.8,22.9,83c0-0.2,0-0.4,0-0.5c0-0.5,0.1-0.9,0.2-1.3&#10;&#9;&#9;        &#9;&#9;c0,0,0.3-1.4,1-2.8c1.6-3,9.1-9,10.9-15c0.4-1.4,0.8-3.7,0-6.8c0.8,0.4,13.8,7.2,14.3,20c0,0.2,0,0.4,0,0.6&#10;&#9;&#9;        &#9;&#9;c5.1-4.7,8.4-11.3,8.4-18.6C57.6,43.5,30.9,3.3,30.9,3.3z" style="border-bottom-color:rgb(44, 89, 153);border-left-color:rgb(44, 89, 153);border-right-color:rgb(44, 89, 153);border-top-color:rgb(44, 89, 153);color:rgb(44, 89, 153);height:auto;outline-color:rgb(44, 89, 153);overflow-x:visible;overflow-y:visible;width:auto;column-rule-color:rgb(44, 89, 153);perspective-origin:0px 0px;-webkit-text-emphasis-color:rgb(44, 89, 153);-webkit-text-fill-color:rgb(44, 89, 153);-webkit-text-stroke-color:rgb(44, 89, 153);transform-origin:0px 0px;fill:none;d:path('M 30.9 3.3 c 0 0 -26.8 40.9 -26.8 55.3 C 4.1 70.1 12 79.8 22.9 83 c 0 -0.2 0 -0.4 0 -0.5 c 0 -0.5 0.1 -0.9 0.2 -1.3 c 0 0 0.3 -1.4 1 -2.8 c 1.6 -3 9.1 -9 10.9 -15 c 0.4 -1.4 0.8 -3.7 0 -6.8 c 0.8 0.4 13.8 7.2 14.3 20 c 0 0.2 0 0.4 0 0.6 c 5.1 -4.7 8.4 -11.3 8.4 -18.6 C 57.6 43.5 30.9 3.3 30.9 3.3 Z');"/>
		        		<linearGradient id="SVGID_1_" gradientUnits="userSpaceOnUse" x1="30.8645" y1="3.3436" x2="30.8645" y2="83.0441" style="border-bottom-color:rgb(44, 89, 153);border-left-color:rgb(44, 89, 153);border-right-color:rgb(44, 89, 153);border-top-color:rgb(44, 89, 153);color:rgb(44, 89, 153);height:auto;outline-color:rgb(44, 89, 153);overflow-x:visible;overflow-y:visible;width:auto;column-rule-color:rgb(44, 89, 153);perspective-origin:0px 0px;-webkit-text-emphasis-color:rgb(44, 89, 153);-webkit-text-fill-color:rgb(44, 89, 153);-webkit-text-stroke-color:rgb(44, 89, 153);transform-origin:0px 0px;">
		        			<stop offset="0" style="border-bottom-color:rgb(44, 89, 153);border-left-color:rgb(44, 89, 153);border-right-color:rgb(44, 89, 153);border-top-color:rgb(44, 89, 153);color:rgb(44, 89, 153);height:auto;outline-color:rgb(44, 89, 153);overflow-x:visible;overflow-y:visible;width:auto;column-rule-color:rgb(44, 89, 153);perspective-origin:0px 0px;-webkit-text-emphasis-color:rgb(44, 89, 153);-webkit-text-fill-color:rgb(44, 89, 153);-webkit-text-stroke-color:rgb(44, 89, 153);transform-origin:0px 0px;stop-color:rgb(234, 60, 109);"/>
		        			<stop offset="0.7522" style="border-bottom-color:rgb(44, 89, 153);border-left-color:rgb(44, 89, 153);border-right-color:rgb(44, 89, 153);border-top-color:rgb(44, 89, 153);color:rgb(44, 89, 153);height:auto;outline-color:rgb(44, 89, 153);overflow-x:visible;overflow-y:visible;width:auto;column-rule-color:rgb(44, 89, 153);perspective-origin:0px 0px;-webkit-text-emphasis-color:rgb(44, 89, 153);-webkit-text-fill-color:rgb(44, 89, 153);-webkit-text-stroke-color:rgb(44, 89, 153);transform-origin:0px 0px;stop-color:rgb(227, 94, 89);"/>
		        		</linearGradient>
		        		<path fill="url(#SVGID_1_)" d="M30.9,3.3c0,0-26.8,40.9-26.8,55.3C4.1,70.1,12,79.8,22.9,83c0-0.2,0-0.4,0-0.5&#10;&#9;&#9;        &#9;&#9;c0-0.5,0.1-0.9,0.2-1.3c0,0,0.3-1.4,1-2.8c1.6-3,9.1-9,10.9-15c0.4-1.4,0.8-3.7,0-6.8c0.8,0.4,13.8,7.2,14.3,20c0,0.2,0,0.4,0,0.6&#10;&#9;&#9;        &#9;&#9;c5.1-4.7,8.4-11.3,8.4-18.6C57.6,43.5,30.9,3.3,30.9,3.3z" style="border-bottom-color:rgb(44, 89, 153);border-left-color:rgb(44, 89, 153);border-right-color:rgb(44, 89, 153);border-top-color:rgb(44, 89, 153);color:rgb(44, 89, 153);height:auto;outline-color:rgb(44, 89, 153);overflow-x:visible;overflow-y:visible;width:auto;column-rule-color:rgb(44, 89, 153);perspective-origin:0px 0px;-webkit-text-emphasis-color:rgb(44, 89, 153);-webkit-text-fill-color:rgb(44, 89, 153);-webkit-text-stroke-color:rgb(44, 89, 153);transform-origin:0px 0px;fill:url(&quot;#SVGID_1_&quot;);d:path('M 30.9 3.3 c 0 0 -26.8 40.9 -26.8 55.3 C 4.1 70.1 12 79.8 22.9 83 c 0 -0.2 0 -0.4 0 -0.5 c 0 -0.5 0.1 -0.9 0.2 -1.3 c 0 0 0.3 -1.4 1 -2.8 c 1.6 -3 9.1 -9 10.9 -15 c 0.4 -1.4 0.8 -3.7 0 -6.8 c 0.8 0.4 13.8 7.2 14.3 20 c 0 0.2 0 0.4 0 0.6 c 5.1 -4.7 8.4 -11.3 8.4 -18.6 C 57.6 43.5 30.9 3.3 30.9 3.3 Z');"/>
		        		<path fill="#FFFFFF" d="M26.7,66" style="border-bottom-color:rgb(44, 89, 153);border-left-color:rgb(44, 89, 153);border-right-color:rgb(44, 89, 153);border-top-color:rgb(44, 89, 153);color:rgb(44, 89, 153);height:auto;outline-color:rgb(44, 89, 153);overflow-x:visible;overflow-y:visible;width:auto;column-rule-color:rgb(44, 89, 153);perspective-origin:0px 0px;-webkit-text-emphasis-color:rgb(44, 89, 153);-webkit-text-fill-color:rgb(44, 89, 153);-webkit-text-stroke-color:rgb(44, 89, 153);transform-origin:0px 0px;fill:rgb(255, 255, 255);d:path('M 26.7 66');"/>
		        		<path fill="none" stroke="#FFFFFF" stroke-width="1.5152" stroke-miterlimit="10" d="M61.3,49.4" style="border-bottom-color:rgb(44, 89, 153);border-left-color:rgb(44, 89, 153);border-right-color:rgb(44, 89, 153);border-top-color:rgb(44, 89, 153);color:rgb(44, 89, 153);height:auto;outline-color:rgb(44, 89, 153);overflow-x:visible;overflow-y:visible;width:auto;column-rule-color:rgb(44, 89, 153);perspective-origin:0px 0px;-webkit-text-emphasis-color:rgb(44, 89, 153);-webkit-text-fill-color:rgb(44, 89, 153);-webkit-text-stroke-color:rgb(44, 89, 153);transform-origin:0px 0px;fill:none;stroke:rgb(255, 255, 255);stroke-miterlimit:10;stroke-width:1.5152px;d:path('M 61.3 49.4');"/>
		        		<g style="border-bottom-color:rgb(44, 89, 153);border-left-color:rgb(44, 89, 153);border-right-color:rgb(44, 89, 153);border-top-color:rgb(44, 89, 153);color:rgb(44, 89, 153);height:auto;outline-color:rgb(44, 89, 153);overflow-x:visible;overflow-y:visible;width:auto;column-rule-color:rgb(44, 89, 153);perspective-origin:0px 0px;-webkit-text-emphasis-color:rgb(44, 89, 153);-webkit-text-fill-color:rgb(44, 89, 153);-webkit-text-stroke-color:rgb(44, 89, 153);transform-origin:0px 0px;">
		        			<polygon fill="#FFFFFF" points="14.3,63.6 0,63.6 0,60.3 12.2,60.3 28.8,26.4 30.2,23.4 31.8,26.4 40.3,42.9 61.1,42.9 61.1,46.2 &#10;&#9;&#9;        &#9;&#9;&#9;38.3,46.2 30.3,30.8 &#9;" style="border-bottom-color:rgb(44, 89, 153);border-left-color:rgb(44, 89, 153);border-right-color:rgb(44, 89, 153);border-top-color:rgb(44, 89, 153);color:rgb(44, 89, 153);height:auto;outline-color:rgb(44, 89, 153);overflow-x:visible;overflow-y:visible;width:auto;column-rule-color:rgb(44, 89, 153);perspective-origin:0px 0px;-webkit-text-emphasis-color:rgb(44, 89, 153);-webkit-text-fill-color:rgb(44, 89, 153);-webkit-text-stroke-color:rgb(44, 89, 153);transform-origin:0px 0px;fill:rgb(255, 255, 255);"/>
		        		</g>
		        		<circle fill="#FFFFFF" cx="13.2" cy="61.1" r="4.4" style="border-bottom-color:rgb(44, 89, 153);border-left-color:rgb(44, 89, 153);border-right-color:rgb(44, 89, 153);border-top-color:rgb(44, 89, 153);color:rgb(44, 89, 153);height:auto;outline-color:rgb(44, 89, 153);overflow-x:visible;overflow-y:visible;width:auto;column-rule-color:rgb(44, 89, 153);perspective-origin:0px 0px;-webkit-text-emphasis-color:rgb(44, 89, 153);-webkit-text-fill-color:rgb(44, 89, 153);-webkit-text-stroke-color:rgb(44, 89, 153);transform-origin:0px 0px;fill:rgb(255, 255, 255);cx:13.2px;cy:61.1px;r:4.4px;"/>
		        		<circle fill="#FFFFFF" cx="30.2" cy="24.8" r="4.4" style="border-bottom-color:rgb(44, 89, 153);border-left-color:rgb(44, 89, 153);border-right-color:rgb(44, 89, 153);border-top-color:rgb(44, 89, 153);color:rgb(44, 89, 153);height:auto;outline-color:rgb(44, 89, 153);overflow-x:visible;overflow-y:visible;width:auto;column-rule-color:rgb(44, 89, 153);perspective-origin:0px 0px;-webkit-text-emphasis-color:rgb(44, 89, 153);-webkit-text-fill-color:rgb(44, 89, 153);-webkit-text-stroke-color:rgb(44, 89, 153);transform-origin:0px 0px;fill:rgb(255, 255, 255);cx:30.2px;cy:24.8px;r:4.4px;"/>
		        		<circle fill="#FFFFFF" cx="39.3" cy="43.8" r="4.4" style="border-bottom-color:rgb(44, 89, 153);border-left-color:rgb(44, 89, 153);border-right-color:rgb(44, 89, 153);border-top-color:rgb(44, 89, 153);color:rgb(44, 89, 153);height:auto;outline-color:rgb(44, 89, 153);overflow-x:visible;overflow-y:visible;width:auto;column-rule-color:rgb(44, 89, 153);perspective-origin:0px 0px;-webkit-text-emphasis-color:rgb(44, 89, 153);-webkit-text-fill-color:rgb(44, 89, 153);-webkit-text-stroke-color:rgb(44, 89, 153);transform-origin:0px 0px;fill:rgb(255, 255, 255);cx:39.3px;cy:43.8px;r:4.4px;"/>
		        	</svg>