<svg xmlns="http://www.w3.org/2000/svg" width="151.31" height="33.688" viewBox="0 0 151.31 33.688">
  <metadata><?xpacket begin="﻿" id="W5M0MpCehiHzreSzNTczkc9d"?>
<x:xmpmeta xmlns:x="adobe:ns:meta/" x:xmptk="Adobe XMP Core 5.6-c138 79.159824, 2016/09/14-01:09:01        ">
   <rdf:RDF xmlns:rdf="http://www.w3.org/1999/02/22-rdf-syntax-ns#">
      <rdf:Description rdf:about=""/>
   </rdf:RDF>
</x:xmpmeta>
                                                                                                    
                                                                                                    
                                                                                                    
                                                                                                    
                                                                                                    
                                                                                                    
                                                                                                    
                                                                                                    
                                                                                                    
                                                                                                    
                                                                                                    
                                                                                                    
                                                                                                    
                                                                                                    
                                                                                                    
                                                                                                    
                                                                                                    
                                                                                                    
                                                                                                    
                                                                                                    
                           
<?xpacket end="w"?></metadata>
<defs>
    <style>
      .cls-1 {
        fill: #fff;
        fill-rule: evenodd;
      }
    </style>
  </defs>
  <path id="logo" class="cls-1" d="M1156.11,440.87h6.55v3.34h0.08c1.4-2.527,3.24-3.853,6.12-3.853a8.72,8.72,0,0,1,2.18.214v5.865a10.311,10.311,0,0,0-2.8-.428c-4.97,0-5.58,2.827-5.58,6.979v8.693h-6.55V440.87Zm36.06,17.213a11.6,11.6,0,0,1-8.95,4.11c-6.55,0-11.78-4.281-11.78-10.918s5.23-10.918,11.78-10.918c6.11,0,9.96,4.282,9.96,10.918v2.012h-15.2a4.873,4.873,0,0,0,4.94,4.025,5.607,5.607,0,0,0,4.67-2.526Zm-5.54-9.163a3.891,3.891,0,0,0-4.02-3.939,4.345,4.345,0,0,0-4.63,3.939h8.65Zm9.29-19.611h6.55V443.1h0.09c1.48-2.012,4.02-2.74,6.72-2.74,6.03,0,9.69,5.309,9.69,11.09,0,6.294-4.14,10.746-10.43,10.746a8.252,8.252,0,0,1-6.5-3.254h-0.09v2.741h-6.03V429.309Zm11.27,27.233a5.267,5.267,0,1,0-5.24-5.267A4.908,4.908,0,0,0,1207.19,456.542Zm27.13,2.526h-0.09c-1.44,2.227-4.06,3.125-6.72,3.125-3.98,0-7.56-2.226-7.56-6.422,0-7.194,8.91-7.322,14.37-7.322,0-2.269-1.92-3.725-4.19-3.725a7.063,7.063,0,0,0-5.33,2.483l-3.49-3.511a13.843,13.843,0,0,1,9.34-3.339c7.64,0,9.69,3.81,9.69,10.747V461.68h-6.02v-2.612Zm-1.62-6.509c-2.01,0-6.46.172-6.46,3,0,1.541,1.66,2.269,3.1,2.269,2.58,0,4.98-1.327,4.98-3.9v-1.37h-1.62Zm22.46-5.566a4.718,4.718,0,0,0-3.8-1.755c-1.09,0-2.4.471-2.4,1.712,0,3.083,11.04.471,11.04,8.392,0,5.31-5.24,6.851-9.78,6.851-2.97,0-6.24-.727-8.33-2.825l3.97-4.325a5.714,5.714,0,0,0,4.62,2.269c1.49,0,2.97-.385,2.97-1.5,0-3.34-11.04-.514-11.04-8.435,0-4.882,4.45-7.022,8.9-7.022,2.8,0,5.9.685,7.86,2.74Zm26.49,11.09a11.6,11.6,0,0,1-8.95,4.11c-6.54,0-11.78-4.281-11.78-10.918s5.24-10.918,11.78-10.918c6.12,0,9.96,4.282,9.96,10.918v2.012h-15.2a4.881,4.881,0,0,0,4.94,4.025,5.607,5.607,0,0,0,4.67-2.526Zm-5.54-9.163a3.891,3.891,0,0,0-4.02-3.939,4.345,4.345,0,0,0-4.63,3.939h8.65Zm31.1,12.76h-6.03v-2.741h-0.09a8.252,8.252,0,0,1-6.5,3.254c-6.29,0-10.43-4.452-10.43-10.746,0-5.781,3.66-11.09,9.69-11.09,2.71,0,5.24.728,6.72,2.74h0.09V429.309h6.55V461.68Zm-11.27-15.672a5.267,5.267,0,1,0,5.24,5.267A4.908,4.908,0,0,0,1295.94,446.008Zm-139.08,27.3h-0.01l-1.51,1.208-0.43-.528,2.05-1.646h0.6v8.146h-0.7V473.3Zm6.67-1.1c2.34,0,2.75,2.439,2.75,4.211s-0.41,4.211-2.75,4.211-2.74-2.439-2.74-4.211S1161.2,472.2,1163.53,472.2Zm0,7.8c1.76,0,1.97-2.324,1.97-3.59s-0.21-3.59-1.97-3.59-1.97,2.324-1.97,3.59S1161.77,480,1163.53,480Zm6.69-7.8c2.33,0,2.75,2.439,2.75,4.211s-0.42,4.211-2.75,4.211-2.74-2.439-2.74-4.211S1167.89,472.2,1170.22,472.2Zm0,7.8c1.76,0,1.97-2.324,1.97-3.59s-0.21-3.59-1.97-3.59-1.97,2.324-1.97,3.59S1168.46,480,1170.22,480Zm6.1-7.8a1.979,1.979,0,1,1-2.02,1.978A2,2,0,0,1,1176.32,472.2Zm0,3.336a1.358,1.358,0,1,0-1.38-1.358A1.365,1.365,0,0,0,1176.32,475.535Zm4.74-3.589,0.54,0.322-5.36,8.606-0.53-.322Zm-0.1,4.717a1.979,1.979,0,1,1-2.02,1.979A1.995,1.995,0,0,1,1180.96,476.663Zm0,3.337a1.358,1.358,0,1,0-1.39-1.358A1.357,1.357,0,0,0,1180.96,480Zm14.66-.8a3.63,3.63,0,0,1-3.08,1.485,4.281,4.281,0,1,1,0-8.561,3.493,3.493,0,0,1,2.86,1.278l-0.64.517a2.646,2.646,0,0,0-2.22-1.1,3.591,3.591,0,0,0,0,7.18,3.019,3.019,0,0,0,2.45-1.266Zm5.76-7.076a4.281,4.281,0,1,1-4.29,4.281A4.117,4.117,0,0,1,1201.38,472.129Zm0,7.871a3.591,3.591,0,1,0-3.52-3.59A3.4,3.4,0,0,0,1201.38,480Zm6.51-7.663h2.57c4.32,0,4.49,3.474,4.49,4.073s-0.17,4.073-4.49,4.073h-2.57v-8.146Zm0.78,7.456h1.59c2.21,0,3.92-1.048,3.92-3.383s-1.71-3.382-3.92-3.382h-1.59v6.765Zm8.61-7.456h5.08v0.691h-4.31v2.9h4.04v0.691h-4.04v3.176h4.5v0.69h-5.27v-8.146Zm7.76,7.11h0.83l-0.91,2.624h-0.69Zm8.97-7.248c2.33,0,2.74,2.439,2.74,4.211s-0.41,4.211-2.74,4.211-2.75-2.439-2.75-4.211S1231.67,472.2,1234.01,472.2Zm0,7.8c1.76,0,1.97-2.324,1.97-3.59s-0.21-3.59-1.97-3.59-1.97,2.324-1.97,3.59S1232.25,480,1234.01,480Zm6.1-7.8a1.979,1.979,0,1,1-2.02,1.978A2,2,0,0,1,1240.11,472.2Zm0,3.336a1.358,1.358,0,1,0-1.39-1.358A1.357,1.357,0,0,0,1240.11,475.535Zm4.74-3.589,0.54,0.322-5.36,8.606-0.53-.322Zm-0.11,4.717a1.979,1.979,0,1,1-2.02,1.979A2,2,0,0,1,1244.74,476.663Zm0,3.337a1.358,1.358,0,1,0-1.38-1.358A1.366,1.366,0,0,0,1244.74,480Zm7.83-7.663h2.39c1.27,0,2.68.311,2.68,2.151a1.681,1.681,0,0,1-1.49,1.692V476.2a1.915,1.915,0,0,1,1.85,2c0,1.876-1.65,2.279-2.78,2.279h-2.65v-8.146Zm0.77,3.521h1.61c1.61,0,1.91-.863,1.91-1.37,0-1.139-.82-1.46-1.81-1.46h-1.71v2.83Zm0,3.935h1.77c1.82,0,2.12-.989,2.12-1.565a1.748,1.748,0,0,0-2-1.68h-1.89v3.245Zm13.11-2.427c0,1.736-.77,3.324-3.03,3.324s-3.03-1.588-3.03-3.324v-5.029h0.78v4.832c0,1.162.32,2.831,2.25,2.831s2.25-1.669,2.25-2.831v-4.832h0.78v5.029Zm2.71-5.029h0.77v7.456h3.87v0.69h-4.64v-8.146Zm6.45,0h0.78v7.456h3.87v0.69h-4.65v-8.146Zm6.68,6.639a2.1,2.1,0,0,0,1.9,1.024,1.677,1.677,0,0,0,1.86-1.6c0-2.279-4.28-.944-4.28-4.039a2.381,2.381,0,0,1,2.66-2.233,2.735,2.735,0,0,1,2.27,1.024l-0.67.472a1.885,1.885,0,0,0-1.62-.805,1.632,1.632,0,0,0-1.87,1.542c0,2.451,4.28.978,4.28,4.039a2.36,2.36,0,0,1-2.58,2.289,3.124,3.124,0,0,1-2.69-1.231Zm6.88-6.639h0.78v3.589h4.64v-3.589h0.78v8.146h-0.78v-3.866h-4.64v3.866h-0.78v-8.146Zm9.06,0H1299v8.146h-0.77v-8.146Zm5.48,0.691h-2.84v-0.691h6.45v0.691h-2.84v7.455h-0.77v-7.455ZM1141,470.187h176V491H1141V470.187Z" transform="translate(-1156 -429.312)"/>
</svg>
