<?xml version="1.0" encoding="utf-8"?>
<!-- Generator: Adobe Illustrator 21.1.0, SVG Export Plug-In . SVG Version: 6.00 Build 0)  -->
<svg version="1.1" id="Layer_1_1_" xmlns="http://www.w3.org/2000/svg" xmlns:xlink="http://www.w3.org/1999/xlink" x="0px" y="0px"
	 viewBox="0 0 50 50" style="enable-background:new 0 0 50 50;" xml:space="preserve">
<style type="text/css">
	.st0{fill:#FFFFFF;}
</style>
<g>
	<polygon class="st0" points="27.2,14.3 27.7,11.6 22.7,11.6 23.3,14.3 	"/>
	<path class="st0" d="M21.5,6.3H29l1.1-5.2c0.1-0.3,0-0.5-0.2-0.8C29.8,0.1,29.5,0,29.3,0h-8c-0.3,0-0.5,0.1-0.7,0.3
		c-0.2,0.2-0.2,0.5-0.2,0.8L21.5,6.3z"/>
	<path class="st0" d="M18.1,9.8h14.3c0.5,0,0.9-0.4,0.9-0.9c0-0.5-0.4-0.9-0.9-0.9H18.1c-0.5,0-0.9,0.4-0.9,0.9
		C17.2,9.4,17.6,9.8,18.1,9.8z"/>
	<path class="st0" d="M31.7,41.1c-0.6,0.5-1.3,1-2,1.5c-0.7,0.5-1.5,0.9-2.3,1.3c0.9,0.1,1.8-0.1,2.7-0.5c0.9-0.3,1.7-0.8,2.4-1.4
		c0.7-0.6,1.3-1.3,1.7-2.2c0.4-0.8,0.7-1.7,0.8-2.6c-0.5,0.7-1,1.4-1.6,2.1C32.9,40,32.3,40.6,31.7,41.1z"/>
	<path class="st0" d="M41.3,33.9c0-6.9-4.3-12.7-10.4-15c-0.2-0.2-0.3-0.4-0.3-0.7v-6.6h-1.1l-0.7,3.7c-0.1,0.4-0.5,0.7-0.9,0.7
		h-5.4c-0.4,0-0.8-0.3-0.9-0.7l-0.8-3.7h-1.1v6.6c0,0.3-0.1,0.5-0.3,0.7C13.5,21.1,9.1,27,9.1,33.9c0,8.9,7.2,16.1,16.1,16.1
		c0,0,0,0,0,0c0,0,0,0,0,0C34.1,50,41.3,42.8,41.3,33.9C41.3,33.9,41.3,33.9,41.3,33.9C41.3,33.9,41.3,33.9,41.3,33.9z M18.7,28.2
		c0.6-0.2,1.1-0.7,1.3-1.3l0.7-2.5l0.7,2.5c0.2,0.6,0.7,1.1,1.3,1.3l2.5,0.7l-2.5,0.7c-0.6,0.2-1.1,0.7-1.3,1.3l-0.7,2.5L20,30.9
		c-0.2-0.6-0.7-1.1-1.3-1.3l-2.5-0.7L18.7,28.2z M25.1,46.6c-7-0.1-12.7-5.8-12.8-12.8c0-1.2,0.1-2.4,0.5-3.6
		c0.1-0.4,0.8-0.4,0.8,0.1c0,0.1,0,0.3,0,0.4c0.1,4.6,3.9,8.4,8.5,8.5c4.8,0.1,8.8-3.8,8.8-8.6c0-4.7-3.8-8.7-8.5-8.7
		c0,0-0.1,0-0.1,0c-0.5,0-0.5-0.7-0.1-0.8c1-0.2,2-0.4,3.1-0.4c7,0,12.8,5.8,12.9,12.8C38.2,40.8,32.3,46.7,25.1,46.6z"/>
	<path class="st0" d="M38.2,14c0.4,0.1,0.8,0.5,0.9,0.9l0.5,1.8l0.5-1.8c0.1-0.4,0.5-0.8,0.9-0.9l1.8-0.5L40.9,13
		c-0.4-0.1-0.8-0.5-0.9-0.9l-0.5-1.8L39,12.1c-0.1,0.4-0.5,0.8-0.9,0.9l-1.8,0.5L38.2,14z"/>
	<path class="st0" d="M9.1,4C9.5,4.1,9.9,4.4,10,4.8l0.5,1.8L11,4.8c0.1-0.4,0.5-0.8,0.9-0.9l1.8-0.5L11.8,3
		c-0.4-0.1-0.8-0.5-0.9-0.9l-0.5-1.8L10,2.1C9.9,2.5,9.5,2.8,9.1,3L7.3,3.5L9.1,4z"/>
</g>
</svg>
